# xmcd CD database file
#
# Track frame offsets:
#	150
#	17894
#	33403
#	47941
#	59030
#	70758
#	86002
#	98811
#	111664
#	127216
#	144889
#	161273
#	180565
#	205527
#	217695
#	236206
#	251130
#
# Disc length: 4543 seconds
#
# Revision: 0
# Processed by: cddbd v1.5.1PL2 Copyright (c) Steve Scherf et al.
# Submitted via: CDex 1.51
#
DISCID=f711bd11
DTITLE=Laughin' Nose - Laughin' Complete VAP Tracks
DYEAR=2005
DGENRE=Punk Rock
TTITLE0=Song for USA
TTITLE1=R&R Desire
TTITLE2=London Night
TTITLE3=Bad Trip
TTITLE4=Last Teen
TTITLE5=In the City
TTITLE6=Laughin' Roll
TTITLE7=I Am I
TTITLE8=Beauty Maniaxx
TTITLE9=Happy Birthday
TTITLE10=White Christmas
TTITLE11=Bright 'N' Shadow
TTITLE12=Paradice(LIVE)
TTITLE13=Pussy For Sale(LIVE)
TTITLE14=I Can't Trust A Woman(LIVE)
TTITLE15=戦争反対(LIVE)
TTITLE16=Secret Live Tracks
EXTD=YEAR: 2005
EXTT0=
EXTT1=
EXTT2=
EXTT3=
EXTT4=
EXTT5=
EXTT6=
EXTT7=
EXTT8=
EXTT9=
EXTT10=
EXTT11=
EXTT12=
EXTT13=
EXTT14=
EXTT15=
EXTT16=
PLAYORDER=
